:SAMPLES-PER-SECOND 30
:FULLY-SPECIFIED
:DEGREES
407
root  -24.5988 33.5472 0.119472 -174.218 -46.6683 -175.691
RightUpLeg  -23.8223 -25.5409 15.5991
RightLeg  25.3836 -9.39014 -3.7178
RightFoot  -9.9209 0.108681 1.85021
RightToes  -1.62028 -0.00424814 -0.015272
Spine  -0.570421 -2.18484 -2.77356
Spine1  -0.683888 -4.87401 -4.57501
HEad  -71.2912 -43.3572 17.45
LeftShoulder1  -1.94126e-019 -3.10601e-018 -2.51263e-017
LeftArm  -32.5544 32.8684 -64.2611
LeftForeArm  18.659 -11.384 -1.9915
LeftHand  -0.272414 3.42031 15.6124
RightShoulder  -4.96962e-017 0 -2.36833e-017
RightArm  -53.2023 -39.5484 62.3263
RightForeArm  64.3562 2.12585 0.328602
RightHand  -0.0050421 -5.6354 -8.29097
LeftUpLeg  -33.1242 37.7515 -0.271191
LeftLeg  71.8295 2.68366 6.63827
LeftFoot  11.5861 -0.129336 1.4363
LeftToes  -38.0917 1.9075e-006 4.29692e-008
408
root  -25.3954 33.7959 0.547912 -173.842 -42.5002 -176.412
RightUpLeg  -21.7238 -20.8983 12.8972
RightLeg  23.5693 -10.2998 -3.70161
RightFoot  -7.5522 0.0643669 1.58049
RightToes  -4.69775 -0.0134981 -0.0439212
Spine  -0.646095 -1.70867 -2.98052
Spine1  -0.982982 -3.68417 -5.11442
HEad  -70.3545 -42.2121 16.7638
LeftShoulder1  -1.94126e-019 -3.10601e-018 -2.51263e-017
LeftArm  -30.8014 32.6974 -64.037
LeftForeArm  17.8324 -11.7544 -2.04926
LeftHand  -0.35689 2.583 14.5319
RightShoulder  -4.96962e-017 0 -2.36833e-017
RightArm  -54.2178 -34.6307 63.0485
RightForeArm  63.9562 3.71071 0.606951
RightHand  -0.0271738 -5.2987 -11.7597
LeftUpLeg  -34.5197 38.2359 0.621679
LeftLeg  71.4958 4.54675 10.98
LeftFoot  10.3309 -0.188318 2.2445
LeftToes  -35.8326 1.9075e-006 4.29692e-008
409
root  -26.3354 34.0614 0.972071 -174.401 -38.7667 -177.171
RightUpLeg  -18.7188 -18.5931 9.95543
RightLeg  21.142 -9.48741 -2.96776
RightFoot  -5.08636 0.0202041 1.0598
RightToes  -7.88426 -0.0246821 -0.0730177
Spine  -0.514788 -1.34717 -3.13517
Spine1  -0.896161 -2.73106 -5.49979
HEad  -69.2985 -41.2446 15.3706
LeftShoulder1  -1.94126e-019 -3.10601e-018 -2.51263e-017
LeftArm  -30.716 31.4313 -64.5224
LeftForeArm  20.1387 -10.8826 -1.9021
LeftHand  -0.408273 1.61738 12.4777
RightShoulder  -4.96962e-017 0 -2.36833e-017
RightArm  -52.0972 -29.5934 64.7771
RightForeArm  61.2515 6.61812 1.12449
RightHand  -0.0570514 -5.03187 -13.4617
LeftUpLeg  -32.2773 36.2767 3.10532
LeftLeg  67.1189 6.02658 11.8431
LeftFoot  9.90542 -0.201738 2.48924
LeftToes  -34.1288 1.9075e-006 4.29692e-008
410
root  -27.2651 34.256 1.45419 -174.591 -34.8307 -177.534
RightUpLeg  -16.9245 -16.2136 7.65604
RightLeg  19.0303 -8.31731 -2.27318
RightFoot  -2.71661 0.000199587 0.619601
RightToes  -11.1994 -0.0380155 -0.10258
Spine  -0.651833 -1.04368 -3.08398
Spine1  -1.27985 -2.01993 -5.38144
HEad  -68.8529 -40.4351 13.9686
LeftShoulder1  -1.94126e-019 -3.10601e-018 -2.51263e-017
LeftArm  -29.8085 29.9195 -65.6838
LeftForeArm  22.3304 -9.8443 -1.72781
LeftHand  -0.397257 1.72807 12.4926
RightShoulder  -4.96962e-017 0 -2.36833e-017
RightArm  -44.7191 -24.8599 66.6375
RightForeArm  55.3533 10.5885 1.55117
RightHand  -0.133389 -4.32396 -13.0427
LeftUpLeg  -29.1105 32.042 5.9694
LeftLeg  59.3005 5.54549 8.02644
LeftFoot  9.4695 -0.136967 1.8151
LeftToes  -37.729 1.9075e-006 4.29692e-008
411
root  -28.164 34.3331 1.99226 -174.593 -30.1603 -177.349
RightUpLeg  -16.3617 -13.3361 6.06969
RightLeg  17.5952 -6.77398 -1.67318
RightFoot  -0.532236 -0.00198598 0.276705
RightToes  -14.6377 -0.0536259 -0.132373
Spine  -0.892772 -0.701857 -2.69596
Spine1  -1.79545 -1.34335 -4.59372
HEad  -69.472 -39.1432 13.2566
LeftShoulder1  -1.94126e-019 -3.10601e-018 -2.51263e-017
LeftArm  -28.4753 28.6065 -67.5721
LeftForeArm  23.0605 -9.51644 -1.67127
LeftHand  -0.380703 2.05008 13.0868
RightShoulder  -4.96962e-017 0 -2.36833e-017
RightArm  -34.9647 -20.3541 68.5845
RightForeArm  48.9009 17.7099 1.89863
RightHand  -0.209961 -3.46316 -11.9689
LeftUpLeg  -25.0607 25.8448 9.22
LeftLeg  48.9144 3.5874 3.60072
LeftFoot  7.39686 -0.0435793 0.835709
LeftToes  -39.5279 1.9075e-006 4.29692e-008
412
root  -29.0597 34.3106 2.58885 -174.771 -24.9444 -176.889
RightUpLeg  -16.6346 -10.2409 4.79687
RightLeg  17.1845 -4.84726 -1.16237
RightFoot  1.40974 0.00552149 0.0731107
RightToes  -18.0591 -0.0709053 -0.161036
Spine  -1.00859 -0.473586 -2.09546
Spine1  -2.04766 -0.899728 -3.42214
HEad  -70.969 -36.7385 13.285
LeftShoulder1  -1.94126e-019 -3.10601e-018 -2.51263e-017
LeftArm  -27.5494 27.5686 -69.7967
LeftForeArm  22.5285 -10.0604 -1.76606
LeftHand  -0.367038 2.16652 13.0522
RightShoulder  -4.96962e-017 0 -2.36833e-017
RightArm  -26.218 -14.7416 70.3723
RightForeArm  47.2445 23.2809 2.57611
RightHand  -0.250486 -2.83445 -10.951
LeftUpLeg  -19.8879 16.0571 12.7018
LeftLeg  37.0537 2.16734 1.42102
LeftFoot  5.53668 -0.0119841 0.409359
LeftToes  -38.3155 1.9075e-006 4.29692e-008
413
root  -29.9634 34.1981 3.22811 -175.158 -19.3125 -176.47
RightUpLeg  -17.707 -7.07016 3.53309
RightLeg  18.1743 -2.56001 -0.662349
RightFoot  2.984 0.0129141 0.0385354
RightToes  -21.34 -0.0890538 -0.187508
Spine  -0.991756 -0.279827 -1.39984
Spine1  -2.02157 -0.513773 -2.05041
HEad  -72.0364 -33.7772 13.1845
LeftShoulder1  -1.94126e-019 -3.10601e-018 -2.51263e-017
LeftArm  -26.7184 26.6105 -72.1637
LeftForeArm  22.1538 -11.188 -1.94848
LeftHand  -0.372037 2.05953 12.8178
RightShoulder  -4.96962e-017 0 -2.36833e-017
RightArm  -18.0533 -8.48738 72.6582
RightForeArm  48.3477 27.0264 3.28606
RightHand  -0.327336 -1.99189 -10.9753
LeftUpLeg  -14.1901 -0.750703 15.6251
LeftLeg  26.2955 3.47881 1.44395
LeftFoot  3.05098 -0.00516885 0.355619
LeftToes  -39.3619 1.9075e-006 4.29692e-008
414
root  -30.9437 33.9772 3.90026 -175.881 -13.7089 -176.346
RightUpLeg  -19.2891 -4.77349 2.00895
RightLeg  20.4173 0.532194 0.157669
RightFoot  4.09895 0.0116263 0.198159
RightToes  -24.7546 -0.109519 -0.213908
Spine  -0.712347 -0.152713 -0.730809
Spine1  -1.47024 -0.234755 -0.731234
HEad  -73.1305 -30.9081 13.2647
LeftShoulder1  -1.94126e-019 -3.10601e-018 -2.51263e-017
LeftArm  -24.3331 25.8114 -74.2636
LeftForeArm  21.4076 -15.0364 -2.60594
LeftHand  -0.397492 1.73298 12.5165
RightShoulder  -4.96962e-017 0 -2.36833e-017
RightArm  -9.95777 -2.2633 75.6734
RightForeArm  49.9007 29.5163 3.74241
RightHand  -0.363779 -1.50015 -10.7331
LeftUpLeg  -10.1624 -18.4681 15.9357
LeftLeg  22.1397 4.80947 1.59977
LeftFoot  -1.39776 -0.00155504 0.0340228
LeftToes  -37.5427 1.9075e-006 4.29692e-008
415
root  -31.9696 33.6894 4.58071 -176.946 -7.91806 -176.659
RightUpLeg  -20.9128 -2.35641 0.125413
RightLeg  22.9185 3.64974 1.26877
RightFoot  5.06693 0.000774781 0.490086
RightToes  -27.7988 -0.129061 -0.23638
Spine  -0.107362 0.127141 -0.225193
Spine1  -0.279506 0.381914 0.222108
HEad  -74.1016 -28.5737 14.4573
LeftShoulder1  -1.94126e-019 -3.10601e-018 -2.51263e-017
LeftArm  -19.959 23.8942 -75.3883
LeftForeArm  20.251 -18.5133 -3.19673
LeftHand  -0.345978 1.85559 11.23
RightShoulder  -4.96962e-017 0 -2.36833e-017
RightArm  -2.9845 3.06513 79.4591
RightForeArm  52.7198 31.1249 3.95855
RightHand  -0.463664 -0.0342991 -10.0928
LeftUpLeg  -7.47033 -21.8787 13.244
LeftLeg  23.003 6.3313 2.21084
LeftFoot  -6.46063 -0.0428156 -0.597075
LeftToes  -38.9629 1.9075e-006 4.29692e-008
416
root  -33.0605 33.5234 5.43515 -177.124 -3.17899 -178.892
RightUpLeg  -23.3187 -0.817607 -3.59281
RightLeg  24.3995 6.61546 2.49078
RightFoot  6.80005 -0.0299197 0.995307
RightToes  -30.6322 -0.148299 -0.256336
Spine  0.493635 0.244308 -0.595545
Spine1  0.852337 0.715519 -0.604344
HEad  -75.1301 -27.4721 17.4485
LeftShoulder1  -1.94126e-019 -3.10601e-018 -2.51263e-017
LeftArm  -15.1267 20.0577 -74.6867
LeftForeArm  21.3941 -19.0143 -3.2241
LeftHand  -0.408602 0.890897 10.5337
RightShoulder  -4.96962e-017 0 -2.36833e-017
RightArm  3.19755 6.48527 84.1385
RightForeArm  57.1138 33.1941 4.21406
RightHand  -0.568723 1.85895 -9.27495
LeftUpLeg  -8.04017 -13.0283 9.45255
LeftLeg  25.1552 2.74069 1.07385
LeftFoot  -7.56198 -0.0252774 -0.220976
LeftToes  -38.329 1.9075e-006 4.29692e-008
417
root  -34.2091 33.5692 6.34366 -176.74 -0.108612 178.738
RightUpLeg  -24.4633 -0.59049 -7.47274
RightLeg  21.8656 9.37714 3.06184
RightFoot  10.1128 -0.126141 1.90375
RightToes  -35.2116 -0.181406 -0.286507
Spine  0.787624 0.113864 -1.26566
Spine1  1.36685 0.520286 -1.98099
HEad  -74.8802 -27.8009 20.2092
LeftShoulder1  -1.94126e-019 -3.10601e-018 -2.51263e-017
LeftArm  -9.41649 15.5248 -72.9952
LeftForeArm  23.6346 -19.0472 -3.1929
LeftHand  -0.41634 0.323988 9.58298
RightShoulder  -4.96962e-017 0 -2.36833e-017
RightArm  7.7178 6.73779 88.2492
RightForeArm  61.7687 36.3866 4.75592
RightHand  -0.737249 3.06857 -10.3309
LeftUpLeg  -10.4064 -3.92832 5.84246
LeftLeg  27.3207 -1.93852 -0.852359
LeftFoot  -6.71455 0.0154165 0.424294
LeftToes  -36.0562 1.9075e-006 4.29692e-008
418
root  -35.2834 33.6449 7.15503 -176.139 2.6499 178.666
RightUpLeg  -24.1271 -1.06507 -8.66711
RightLeg  16.0211 11.1349 2.42074
RightFoot  12.2947 -0.228621 2.5932
RightToes  -37.3033 -0.197307 -0.299388
Spine  0.759245 0.175127 -1.07792
Spine1  1.35797 0.614987 -1.57522
HEad  -74.1637 -29.0418 20.0236
LeftShoulder1  -1.94126e-019 -3.10601e-018 -2.51263e-017
LeftArm  -3.03468 11.4958 -71.8551
LeftForeArm  27.6571 -19.9799 -3.37261
LeftHand  -0.503269 -1.15737 9.07162
RightShoulder  -4.96962e-017 0 -2.36833e-017
RightArm  13.7184 4.95219 88.3282
RightForeArm  63.1268 42.5695 6.32618
RightHand  -0.798087 3.47632 -10.6736
LeftUpLeg  -12.5104 -0.388314 4.17111
LeftLeg  28.6409 -2.46889 -1.15293
LeftFoot  -6.53581 0.0187876 0.490535
LeftToes  -35.6087 1.9075e-006 4.29692e-008
